<?xml version="1.0" standalone="no"?>
<!DOCTYPE svg PUBLIC "-//W3C//DTD SVG 20010904//EN"
 "http://www.w3.org/TR/2001/REC-SVG-20010904/DTD/svg10.dtd">
<svg version="1.0" xmlns="http://www.w3.org/2000/svg"
 width="442.000000pt" height="442.000000pt" viewBox="0 0 442.000000 442.000000"
 preserveAspectRatio="xMidYMid meet">
<metadata>
Created by potrace 1.14, written by Peter Selinger 2001-2017
</metadata>
<g transform="translate(0.000000,442.000000) scale(0.100000,-0.100000)"
fill="#000000" stroke="none">
<path d="M0 2210 l0 -2210 2210 0 2210 0 0 2210 0 2210 -2210 0 -2210 0 0
-2210z m1491 1514 c52 -49 33 -68 -38 -39 -45 19 -73 43 -73 63 0 25 77 8 111
-24z m149 -5 c38 -44 37 -49 -4 -49 -28 0 -40 7 -65 39 -17 21 -28 41 -24 44
15 16 66 -3 93 -34z m155 7 c45 -43 44 -56 -4 -56 -32 0 -44 6 -70 35 -40 46
-39 55 4 55 27 0 45 -8 70 -34z m202 2 c48 -47 44 -58 -25 -58 -56 0 -60 2
-90 39 -17 21 -28 41 -25 45 4 3 29 6 57 6 43 0 55 -5 83 -32z m183 20 c-1 -7
-14 -29 -31 -48 l-30 -35 -34 39 c-19 21 -32 42 -29 47 9 15 124 11 124 -3z
m60 1 c0 -6 -22 -38 -50 -71 -70 -84 -67 -105 23 -167 50 -34 71 -68 60 -98
-20 -58 -75 -69 -130 -27 -44 33 -63 26 -63 -25 0 -78 78 -131 174 -117 58 9
131 58 171 114 25 37 30 53 30 106 0 52 -5 70 -27 104 -32 47 -35 62 -13 62
17 0 61 -84 98 -185 27 -76 57 -244 57 -319 0 -45 -2 -48 -37 -62 -21 -8 -47
-19 -57 -25 -17 -10 -24 -6 -47 22 l-27 34 -48 -33 -47 -34 -33 36 c-18 20
-37 36 -42 36 -5 0 -22 -11 -38 -25 -35 -30 -37 -30 -86 -3 l-40 23 -16 -21
c-10 -12 -22 -30 -27 -39 -9 -14 -15 -16 -30 -7 -52 30 -52 29 -7 68 76 65 95
139 47 184 l-25 24 -31 -37 c-17 -21 -44 -44 -60 -53 -34 -17 -37 -13 -41 51
l-3 40 -64 17 c-62 17 -81 29 -81 55 0 15 6 21 115 93 50 33 113 78 140 100
28 22 72 47 98 56 39 13 58 28 94 75 45 57 63 71 63 48z m160 -1 c0 -7 -14
-27 -32 -45 -28 -29 -38 -33 -83 -33 -29 0 -54 3 -58 6 -3 4 8 24 26 45 30 37
35 39 90 39 38 0 57 -4 57 -12z m170 1 c0 -6 -15 -26 -34 -45 -26 -26 -42 -34
-70 -34 -45 0 -46 14 -4 57 25 26 40 33 70 33 21 0 38 -5 38 -11z m150 4 c0
-5 -16 -25 -36 -45 -25 -27 -44 -38 -65 -38 -37 0 -36 7 2 53 24 30 37 37 65
37 19 0 34 -3 34 -7z m140 -3 c0 -5 -14 -25 -31 -45 -21 -24 -40 -35 -58 -35
-43 0 -44 11 -4 52 25 26 46 38 65 38 15 0 28 -4 28 -10z m164 1 c13 -21 -89
-81 -136 -81 -17 0 -6 24 26 56 26 26 42 34 69 34 20 0 38 -4 41 -9z m-640
-100 c3 -5 -2 -12 -11 -15 -14 -6 -12 -11 14 -36 84 -83 81 -195 -9 -280 -43
-42 -73 -57 -130 -65 -91 -14 -158 31 -158 106 0 22 2 39 5 39 2 0 21 -11 41
-25 66 -45 132 -24 149 48 7 28 1 35 -107 131 -33 29 -36 58 -8 86 17 17 33
20 114 20 52 0 97 -4 100 -9z m-1309 -176 c67 -39 108 -91 138 -178 6 -15 11
-12 43 18 20 20 51 43 68 51 17 9 43 30 58 47 l27 32 11 -30 c7 -16 13 -53 14
-80 1 -43 -5 -61 -44 -125 -60 -100 -72 -135 -68 -200 3 -54 2 -55 -22 -52
-39 6 -108 39 -152 74 -31 24 -53 33 -94 36 -50 4 -56 2 -83 -27 l-29 -31 -12
36 c-24 72 14 136 87 150 27 5 32 10 28 28 -2 11 -7 44 -10 71 -8 62 -43 142
-78 175 -14 13 -23 29 -20 33 9 15 94 -2 138 -28z m2400 25 c3 -5 -4 -15 -15
-22 -40 -24 -78 -121 -93 -239 -5 -35 -4 -36 39 -47 28 -8 50 -21 61 -39 18
-28 24 -93 10 -126 -6 -17 -10 -16 -36 12 -48 52 -131 39 -207 -31 -21 -19
-133 -60 -145 -52 -3 2 -4 26 -1 53 6 61 -10 107 -65 196 -51 82 -58 113 -41
179 14 53 32 69 43 37 3 -11 26 -31 50 -45 24 -14 60 -41 80 -60 30 -29 37
-32 41 -18 30 97 124 194 200 205 54 8 73 7 79 -3z m-2534 -145 c6 -22 20 -52
30 -67 l20 -27 -36 -16 c-19 -10 -45 -33 -57 -53 l-21 -35 -10 24 c-18 49 -13
141 12 189 35 68 45 78 49 49 1 -13 7 -42 13 -64z m2586 22 c27 -54 35 -131
20 -189 -9 -36 -18 -35 -38 4 -8 17 -32 40 -52 51 l-37 19 18 26 c29 43 42 80
42 118 0 45 13 37 47 -29z m-2057 -136 c0 -16 11 -53 24 -82 41 -91 39 -155
-7 -205 -28 -31 -41 -37 -87 -42 l-55 -5 33 37 c17 20 32 38 33 39 0 1 4 50 8
108 8 102 27 179 43 179 4 0 8 -13 8 -29z m1499 -8 c8 -20 17 -84 21 -141 7
-96 10 -106 39 -143 l32 -39 -36 0 c-44 0 -86 21 -114 56 -30 39 -28 123 4
192 14 30 25 67 25 83 0 40 13 36 29 -8z m-677 -243 c2 -8 20 -1 52 21 l48 34
18 -23 c10 -12 20 -27 22 -34 3 -7 14 -4 34 10 16 12 43 25 61 28 30 6 32 5
39 -30 5 -29 10 -36 23 -30 113 47 130 48 115 1 -10 -33 -64 -108 -74 -102 -4
3 0 21 11 41 10 21 16 41 13 45 -2 4 -26 2 -51 -6 -48 -15 -62 -9 -63 23 0 18
-30 15 -73 -7 l-38 -19 -16 24 c-19 29 -38 30 -82 3 -30 -18 -36 -19 -45 -7
-6 8 -22 22 -36 31 -24 16 -27 15 -54 -7 l-29 -23 -39 21 -39 21 -32 -36 -32
-37 -35 19 c-48 25 -68 23 -82 -6 -8 -18 -16 -24 -27 -19 -25 11 -66 10 -64
-1 1 -6 5 -23 9 -39 10 -40 -10 -26 -36 24 -18 36 -28 100 -15 100 12 0 84
-40 90 -50 12 -19 25 -10 25 19 0 51 21 56 79 17 l51 -35 14 32 c7 18 20 38
30 46 15 12 22 10 60 -17 l43 -31 33 37 32 36 28 -31 c15 -17 29 -36 32 -43z
m-1442 23 c27 -18 49 -43 50 -55 0 -5 -14 -8 -30 -8 -73 0 -104 -91 -59 -174
l21 -40 -29 19 c-97 62 -130 148 -84 219 36 54 87 69 131 39z m2795 5 c34 -15
67 -71 67 -112 0 -46 -24 -88 -74 -129 -47 -39 -58 -35 -34 12 9 16 16 48 16
71 0 51 -34 90 -80 90 -16 0 -30 3 -30 8 1 23 64 72 92 72 9 0 29 -5 43 -12z
m-227 -33 c28 -8 28 -21 1 -35 -28 -16 -59 -69 -59 -104 0 -26 2 -28 28 -22
15 4 56 9 92 13 36 3 71 10 78 16 9 7 12 0 11 -29 -1 -49 -18 -95 -46 -128
-26 -30 -28 -36 -11 -36 22 0 80 -53 94 -86 30 -71 13 -170 -39 -236 -20 -25
-25 -23 -41 16 -10 23 -28 42 -55 55 -50 26 -51 26 -51 1 0 -35 -29 -79 -72
-110 -22 -16 -44 -28 -48 -25 -4 2 -3 35 3 72 28 205 -73 356 -264 397 -65 14
-82 22 -105 49 l-27 32 49 6 c51 6 129 42 199 89 65 44 106 62 160 70 51 7 62
7 103 -5z m-2253 -14 c22 -10 72 -39 112 -64 85 -56 112 -67 178 -76 l50 -6
-31 -32 c-18 -18 -49 -36 -75 -42 -99 -25 -119 -33 -166 -64 -96 -66 -146
-203 -126 -343 5 -35 8 -66 5 -68 -2 -3 -14 1 -26 7 -55 31 -96 84 -96 127 0
25 -6 25 -55 -3 -28 -15 -43 -32 -50 -55 -14 -49 -33 -40 -75 40 -26 48 -27
139 -2 188 15 30 62 72 94 82 6 2 0 16 -14 31 -28 29 -48 88 -48 137 0 25 3
30 13 23 6 -6 41 -13 77 -17 36 -3 78 -9 94 -13 l29 -6 -6 44 c-4 35 -14 51
-44 77 -30 27 -35 35 -23 42 26 17 142 11 185 -9z m1083 -41 c6 -36 -8 -90
-22 -90 -25 0 -30 75 -9 113 9 15 28 1 31 -23z m-130 8 c14 -14 17 -98 3 -98
-16 0 -30 26 -37 68 -7 44 7 57 34 30z m262 -21 c0 -37 -24 -77 -46 -77 -20 0
-17 39 6 78 25 41 40 41 40 -1z m-414 15 c28 -18 48 -102 24 -102 -15 0 -50
61 -50 88 0 23 7 27 26 14z m544 -17 c0 -32 -54 -94 -70 -79 -14 14 1 55 30
84 27 27 40 25 40 -5z m94 -14 c8 -12 -32 -61 -50 -61 -20 0 -17 20 8 47 23
25 34 28 42 14z m-714 -31 c7 -17 9 -34 6 -38 -10 -9 -36 27 -36 50 0 28 16
21 30 -12z m410 -102 c10 -24 17 -44 15 -47 -7 -7 -109 -12 -130 -7 -12 3 -27
21 -35 43 -8 21 -16 41 -18 46 -2 4 31 7 73 7 l76 0 19 -42z m-190 13 c21 -41
13 -51 -40 -51 -51 0 -70 15 -70 54 0 26 96 22 110 -3z m330 0 c21 -41 13 -51
-40 -51 -51 0 -70 15 -70 54 0 26 96 22 110 -3z m-468 -15 c16 -24 7 -36 -27
-36 -34 0 -63 28 -51 49 7 11 69 1 78 -13z m582 8 c11 -29 6 -34 -29 -34 -24
0 -37 6 -45 19 -15 29 -13 31 29 31 26 0 41 -5 45 -16z m84 -7 c3 -15 -2 -18
-25 -15 -17 2 -29 10 -31 21 -3 15 2 18 25 15 17 -2 29 -10 31 -21z m-780 0
c20 -13 14 -27 -12 -27 -26 0 -41 14 -32 29 7 10 25 9 44 -2z m932 -451 c0
-191 -5 -379 -11 -422 -22 -158 -91 -343 -176 -471 -103 -156 -348 -357 -415
-340 -36 10 -151 87 -225 152 -126 112 -243 299 -297 476 -47 153 -56 254 -56
617 l0 332 590 0 590 0 0 -344z m-1426 283 c23 -11 63 -39 90 -63 l50 -43 -68
-7 c-106 -11 -195 -65 -244 -148 -9 -16 -20 -28 -24 -28 -4 0 -8 33 -8 73 0
142 51 237 125 237 21 0 56 -9 79 -21z m1827 -10 c16 -17 36 -54 44 -82 16
-53 21 -197 7 -197 -4 0 -16 15 -27 33 -45 77 -140 133 -244 144 l-65 6 45 40
c59 53 126 86 172 87 31 0 45 -6 68 -31z m-1703 -227 c8 -6 3 -15 -19 -31 -18
-13 -42 -49 -59 -85 -15 -35 -40 -73 -55 -85 -16 -11 -26 -23 -24 -24 2 -2 15
-8 29 -14 49 -21 107 -71 123 -106 21 -44 22 -109 1 -153 -26 -55 -38 -58 -65
-17 -47 73 -137 101 -216 68 l-36 -15 6 -58 c3 -31 12 -76 20 -100 15 -42 15
-43 -7 -36 -140 43 -196 145 -196 359 0 78 -4 118 -15 139 -8 15 -15 30 -15
31 0 2 24 1 54 -2 69 -7 138 14 225 69 35 22 78 46 95 54 34 15 134 18 154 6z
m1590 -7 c20 -9 64 -33 97 -55 80 -52 151 -74 220 -68 52 4 53 4 42 -16 -6
-12 -14 -86 -18 -166 -7 -172 -25 -227 -95 -288 -35 -31 -111 -68 -120 -59 -2
1 6 27 16 57 28 80 26 134 -5 154 -30 20 -101 21 -148 1 -32 -13 -68 -48 -93
-90 -9 -17 -12 -15 -34 15 -31 44 -38 124 -15 173 19 40 89 97 153 123 1 1
-13 17 -33 37 -19 19 -38 50 -42 68 -4 19 -24 50 -49 75 -23 24 -40 45 -36 48
12 12 124 5 160 -9z m-1717 -521 c53 -27 118 -120 133 -191 9 -38 -9 -108 -36
-146 -11 -16 -29 -50 -38 -75 l-18 -47 -12 30 c-43 113 -164 169 -259 122 -19
-9 -37 -15 -39 -12 -3 3 3 27 14 52 23 57 72 89 151 99 41 5 53 10 53 24 0 28
-28 99 -50 127 -11 14 -18 29 -15 33 7 11 85 0 116 -16z m1809 20 c0 -2 -10
-21 -23 -42 -26 -41 -47 -96 -47 -122 0 -13 12 -19 46 -24 25 -3 66 -15 90
-26 36 -15 49 -28 65 -65 25 -56 18 -70 -24 -48 -40 21 -114 20 -155 -1 -33
-17 -69 -59 -97 -115 l-17 -35 -18 46 c-10 26 -27 59 -38 75 -11 16 -26 50
-32 76 -10 39 -9 55 5 102 18 56 77 135 119 157 28 16 126 33 126 22z m-1567
-289 c51 -38 130 -138 154 -195 45 -105 99 -200 136 -239 26 -27 35 -41 23
-37 -11 4 -39 11 -64 17 -105 23 -202 109 -202 180 0 16 -4 19 -17 13 -10 -4
-39 -9 -64 -12 -38 -3 -51 1 -76 22 -17 15 -36 39 -41 55 -10 27 -8 29 19 35
43 8 70 58 68 126 -1 68 -1 70 9 70 4 0 28 -16 55 -35z m1271 13 c-21 -66 14
-162 62 -174 33 -8 31 -36 -5 -76 -26 -30 -35 -33 -83 -33 -29 0 -61 4 -70 9
-15 7 -18 4 -18 -15 0 -69 -91 -150 -200 -179 -25 -6 -54 -14 -65 -17 -14 -4
-8 7 22 38 23 24 53 67 66 94 14 28 43 88 66 135 47 98 106 171 170 212 54 34
65 35 55 6z m-1720 -320 c-14 -23 28 -28 181 -22 157 6 161 6 195 -18 76 -52
25 -75 -71 -32 -46 21 -65 25 -77 17 -9 -5 -31 -55 -49 -109 -28 -87 -34 -99
-55 -100 -13 0 -42 -7 -65 -14 -63 -19 -90 -8 -104 43 -22 80 9 272 41 252 6
-3 7 -11 4 -17z m2136 -37 c5 -20 10 -71 10 -114 0 -130 -31 -161 -125 -122
-20 9 -44 13 -53 11 -14 -5 -24 13 -52 96 -19 56 -42 106 -51 111 -12 8 -30 4
-65 -13 -94 -44 -160 -23 -85 27 29 20 46 23 125 22 50 0 116 -4 146 -8 67
-10 110 3 110 31 0 32 27 4 40 -41z m-1850 -62 c97 -84 334 -165 558 -189 140
-16 390 -8 522 15 180 32 347 98 438 172 23 19 47 33 53 31 6 -2 30 -63 54
-136 l43 -133 -25 -23 c-31 -29 -176 -101 -267 -133 -186 -65 -376 -95 -606
-96 -311 -1 -578 57 -798 173 -129 68 -121 50 -77 192 40 129 51 158 63 158 4
0 23 -14 42 -31z"/>
<path d="M2241 3611 c-14 -4 -26 -12 -28 -18 -6 -17 41 -27 65 -14 12 6 36 11
54 11 23 1 29 3 18 9 -23 13 -82 20 -109 12z"/>
<path d="M2300 3536 c0 -17 27 -29 35 -16 4 6 21 10 38 11 27 0 29 2 12 9 -33
14 -85 12 -85 -4z"/>
<path d="M2340 3475 c0 -16 12 -18 48 -8 18 4 20 8 10 14 -22 14 -58 10 -58
-6z"/>
<path d="M2350 3420 c0 -5 9 -10 21 -10 11 0 17 5 14 10 -3 6 -13 10 -21 10
-8 0 -14 -4 -14 -10z"/>
<path d="M2330 3372 c0 -5 7 -13 16 -16 10 -4 14 -1 12 6 -5 15 -28 23 -28 10z"/>
<path d="M2300 3331 c0 -5 5 -13 10 -16 6 -3 10 -2 10 4 0 5 -4 13 -10 16 -5
3 -10 2 -10 -4z"/>
<path d="M2250 3300 c0 -5 5 -10 11 -10 5 0 7 5 4 10 -3 6 -8 10 -11 10 -2 0
-4 -4 -4 -10z"/>
<path d="M1677 2593 c-11 -10 -8 -540 3 -617 10 -67 39 -181 45 -174 1 2 -3
37 -11 78 -9 52 -13 173 -14 388 l0 312 506 0 506 0 -5 -327 c-3 -254 -8 -344
-21 -397 -8 -38 -14 -71 -12 -73 2 -2 14 31 26 74 22 73 24 100 27 411 l5 332
-525 0 c-288 0 -527 -3 -530 -7z"/>
<path d="M2196 2359 c-2 -8 -15 -58 -27 -111 -13 -54 -26 -98 -31 -98 -4 0
-31 21 -60 46 -102 90 -110 96 -114 92 -2 -3 14 -47 36 -98 48 -113 49 -123
13 -116 -44 8 -203 19 -203 13 0 -2 43 -30 95 -61 52 -31 95 -61 95 -65 0 -5
-43 -35 -95 -66 -53 -32 -93 -60 -91 -62 2 -2 53 0 112 6 60 5 111 8 113 5 3
-2 -14 -50 -37 -106 -23 -56 -41 -103 -39 -105 2 -1 41 29 86 67 46 39 86 70
91 70 4 0 17 -46 30 -102 12 -57 26 -106 29 -111 4 -4 18 39 31 95 13 57 27
107 31 112 7 7 64 -36 153 -116 11 -10 22 -16 24 -13 3 2 -15 50 -38 105 -23
55 -41 103 -39 105 3 2 47 0 99 -5 156 -15 155 -16 42 52 -56 34 -102 65 -102
68 0 3 35 27 78 52 42 26 86 54 97 62 19 15 19 15 -10 15 -16 0 -66 -4 -110
-9 -44 -4 -83 -5 -88 -1 -4 4 11 49 33 101 22 52 39 98 38 102 -2 4 -40 -24
-86 -63 -46 -40 -87 -68 -91 -63 -4 5 -18 54 -30 109 -24 105 -28 116 -35 94z
m24 -146 c19 -134 14 -131 99 -52 41 38 76 67 78 65 3 -2 -16 -44 -41 -92 -25
-49 -44 -90 -42 -91 2 -2 50 3 107 11 57 8 105 13 107 11 3 -2 -39 -25 -92
-52 -53 -26 -96 -50 -96 -53 0 -3 43 -27 96 -54 52 -26 94 -50 92 -52 -2 -2
-46 3 -98 11 -52 8 -101 15 -108 15 -7 0 8 -41 39 -102 55 -109 54 -109 -50
-11 l-66 63 -20 -108 c-12 -59 -23 -100 -27 -91 -3 8 -11 51 -18 95 -6 43 -14
85 -16 93 -3 10 -31 -11 -84 -64 -44 -44 -80 -76 -80 -72 0 4 21 48 46 98 25
50 43 93 41 95 -2 2 -50 -3 -107 -11 -57 -8 -105 -13 -107 -12 -1 1 41 25 92
52 52 28 95 52 95 55 0 3 -39 25 -86 50 -88 46 -115 67 -73 57 48 -11 181 -28
185 -24 3 3 -15 46 -40 96 -25 50 -46 94 -46 98 0 4 36 -28 79 -71 90 -89 79
-92 101 29 15 85 20 105 24 105 2 0 9 -39 16 -87z"/>
</g>
</svg>
