<svg xmlns="http://www.w3.org/2000/svg" version="1.1" xmlns:xlink="http://www.w3.org/1999/xlink" xmlns:svgjs="http://svgjs.dev/svgjs" width="1920" height="560" preserveAspectRatio="none" viewBox="0 0 1920 560"><g mask="url(&quot;#SvgjsMask1006&quot;)" fill="none"><rect width="1920" height="560" x="0" y="0" fill="#0e2a47"></rect><path d="M36.84 140C53.93 69.4 40.19 48.6 76 0C91.77 -21.4 108 0 140 0C210 0 210 0 280 0C350 0 350 0 420 0C490 0 490 0 560 0C563.89 0 566.26 -3.45 567.78 0C597.19 66.55 583.43 77.6 621.86 140C649.54 184.94 652.89 203.87 700 214.67C761.96 228.87 779.76 172.58 840 190C892.72 205.25 887.68 231.36 925.91 280C957.68 320.43 948.33 327.87 980 368.15C1003.37 397.87 1003.53 401.73 1036 420C1073.53 441.12 1081.61 446.92 1120 446.92C1135.82 446.92 1144.42 435.5 1144.42 420C1144.42 393.66 1138.09 387.74 1120 363.24C1086.4 317.74 1060.63 330.23 1041.03 280C1017.07 218.61 1012.77 201.94 1032.89 140C1052.26 80.36 1080.01 90.68 1120 36.84C1132 20.68 1119.54 4.56 1136.87 0C1189.54 -13.86 1198.43 0 1260 0C1325.51 0 1362.22 -33.78 1391.03 0C1421.92 36.22 1375.64 74.03 1379.41 140C1380.13 152.56 1388.46 157.07 1400 157.07C1418.76 157.07 1422.23 152.27 1440 140C1492.23 103.96 1493.13 60.45 1540 60.45C1579.59 60.45 1612.92 98.43 1612.92 140C1612.92 186.81 1573.05 186.63 1540 237.22C1527.32 256.63 1521.45 257.59 1521.45 280C1521.45 327.11 1517.01 337.1 1540 376.25C1558.11 407.1 1568.72 405.65 1603.64 420C1638.72 434.41 1642.78 423.17 1680 433.77C1750.96 453.97 1760.32 486.23 1820 481.6C1849.1 479.34 1857.56 449.94 1857.56 420C1857.56 393.89 1844.22 388.99 1820 369.51C1757.19 318.99 1707.05 340.26 1683.5 280C1662.2 225.5 1731.35 207.53 1730.31 140C1729.6 94.01 1710.61 92.04 1680 52.97C1655.76 22.04 1620.61 15.17 1620.61 0C1620.61 -11.32 1650.3 0 1680 0C1750 0 1750 0 1820 0C1890 0 1925 -35 1960 0C1995 35 1960 70 1960 140C1960 210 1960 210 1960 280C1960 350 1960 350 1960 420C1960 490 1995 525 1960 560C1925 595 1890 560 1820 560C1750 560 1750 560 1680 560C1615.84 560 1596.74 582.54 1551.67 560C1526.74 547.54 1547.13 490 1540 490C1532.76 490 1548.8 547.07 1522.93 560C1478.8 582.07 1461.47 560 1400 560C1330 560 1330 560 1260 560C1190 560 1190 560 1120 560C1050 560 1050 560 980 560C910 560 910 560 840 560C819 560 818.88 561.9 798 560C748.88 555.53 746.79 547.27 700 547.27C691.58 547.27 696.15 559.22 687.59 560C626.15 565.59 623.8 560 560 560C490 560 490 560 420 560C350 560 350 560 280 560C210 560 210 560 140 560C76.83 560 74.17 566.21 13.66 560C4.17 559.03 0.93 555.18 0 545.64C-5.9 485.18 0 482.82 0 420C0 352.88 -3.83 350.88 0 285.75C0.29 280.88 7.03 284.79 8.24 280C25.45 211.91 20.05 209.4 36.84 140" stroke="rgba(51, 121, 194, 0.58)" stroke-width="2"></path><path d="M420 48.13C368.39 48.13 306.92 94.9 306.92 140C306.92 184.07 368.09 226.47 420 226.47C461.38 226.47 493.5 183.78 493.5 140C493.5 94.61 461.68 48.13 420 48.13" stroke="rgba(51, 121, 194, 0.58)" stroke-width="2"></path><path d="M840 78.24C801.59 78.24 766.11 23.19 766.11 0C766.11 -15.93 803.06 0 840 0C882.9 0 925.81 -16.62 925.81 0C925.81 22.5 881.44 78.24 840 78.24" stroke="rgba(51, 121, 194, 0.58)" stroke-width="2"></path><path d="M1260 241.5C1228.53 241.5 1190 261.82 1190 280C1190 297.63 1227.92 313.12 1260 313.12C1279.3 313.12 1292.77 297.17 1292.77 280C1292.77 261.36 1279.92 241.5 1260 241.5" stroke="rgba(51, 121, 194, 0.58)" stroke-width="2"></path><path d="M140 417.14C138.71 417.14 138.03 418.67 138.03 420C138.03 421.04 138.84 421.87 140 421.87C142.16 421.87 144.67 421.13 144.67 420C144.67 418.77 142.03 417.14 140 417.14" stroke="rgba(51, 121, 194, 0.58)" stroke-width="2"></path><path d="M1110.67 140C1110.67 133.11 1116.84 135.43 1120 128.95C1151.02 65.43 1134.48 41.04 1179.04 0C1204.48 -23.43 1219.52 0 1260 0C1303.07 0 1333.28 -26.53 1346.15 0C1367.25 43.47 1354.34 79.4 1327.94 140C1311.27 178.27 1300.36 184.16 1260 197.75C1196.39 219.16 1169.69 229.22 1120 210C1095.03 200.34 1110.67 173.64 1110.67 140" stroke="rgba(51, 121, 194, 0.58)" stroke-width="2"></path><path d="M1785 140C1780.54 69.3 1741.38 47.8 1753.33 0C1758.88 -22.2 1786.66 0 1820 0C1890 0 1925 -35 1960 0C1995 35 1960 70 1960 140C1960 210 1960 210 1960 280C1960 350 1960 350 1960 420C1960 490 1995 525 1960 560C1925 595 1890 560 1820 560C1750 560 1750 560 1680 560C1645 560 1610 574.33 1610 560C1610 539.9 1638.87 492.8 1680 491.15C1743.87 488.6 1765.23 569.29 1820 551.6C1875.35 533.72 1900.24 483.95 1900.24 420C1900.24 364.22 1865.01 360.88 1820 312.13C1800.39 290.88 1776.15 305.3 1771 280C1758.65 219.24 1789.37 209.3 1785 140" stroke="rgba(51, 121, 194, 0.58)" stroke-width="2"></path><path d="M76.86 280C115.24 239.31 95.3 197.98 140 185.29C196.87 169.15 214.94 193.74 280 222.35C322.63 241.1 315.93 253.89 355.38 280C385.93 300.22 390.85 315 420 315C438.43 315 435.14 297.38 450.55 280C505.14 218.45 502.86 157.14 560 157.14C621.63 157.14 624.05 218.57 688.09 280C694.05 285.71 692.14 291.43 700 291.43C744.76 291.43 746.71 286.03 793.33 280C816.71 276.98 817.82 273.33 840 273.33C844.34 273.33 846.36 275.71 846.36 280C846.36 296.55 842.86 297.45 840 315C831.45 367.45 852.77 380.98 823.53 420C782.77 474.39 758.2 456.61 700 501.82C668.08 526.61 677.86 545.64 643.29 560C607.86 574.73 601.64 560 560 560C490 560 490 560 420 560C350 560 350 560 280 560C210 560 210 560 140 560C98.17 560 91.75 574.98 56.34 560C21.75 545.36 14.17 535.98 0 500.77C-14 465.98 0 460.38 0 420C0 376.85 -18.42 367.25 0 333.7C20.01 297.25 45.24 313.52 76.86 280" stroke="rgba(51, 121, 194, 0.58)" stroke-width="2"></path><path d="M1330 280C1366.18 240.98 1363.76 199.76 1400 199.76C1438.4 199.76 1479.28 238.32 1479.28 280C1479.28 325.44 1441.08 328.33 1400 374C1378.11 398.33 1353.33 393.06 1353.33 420C1353.33 463.41 1372.96 469.76 1400 514.71C1415.07 539.76 1437.56 546.18 1437.56 560C1437.56 568.82 1418.78 560 1400 560C1330 560 1330 560 1260 560C1190 560 1190 560 1120 560C1050 560 1050 560 980 560C938 560 896 579.09 896 560C896 530.97 927.11 479.86 980 463.75C1039.11 445.75 1058.91 504.82 1120 491.79C1161.47 482.94 1151.01 454.36 1185.12 420C1221.01 383.84 1223.34 386.18 1260 350.75C1295.78 316.18 1296.18 316.47 1330 280" stroke="rgba(51, 121, 194, 0.58)" stroke-width="2"></path><path d="M140 345.71C106.5 345.71 88.73 385.54 88.73 420C88.73 446.95 109.73 468.53 140 468.53C196.03 468.53 261.33 449.4 261.33 420C261.33 387.99 192.8 345.71 140 345.71" stroke="rgba(51, 121, 194, 0.58)" stroke-width="2"></path><path d="M1222.67 140C1207.57 80.07 1206.59 54.81 1221.2 0C1225.25 -15.19 1240.6 0 1260 0C1280.64 0 1299.43 -15.75 1301.28 0C1307.66 54.25 1294.39 73.16 1276.47 140C1273.75 150.16 1269.46 154 1260 154C1242.56 154 1226.97 157.07 1222.67 140" stroke="rgba(51, 121, 194, 0.58)" stroke-width="2"></path><path d="M1960 30C1947.5 30 1920 8.33 1920 0C1920 -6.67 1948.57 -8.57 1960 0C1968.57 6.43 1967.5 30 1960 30" stroke="rgba(51, 121, 194, 0.58)" stroke-width="2"></path><path d="M514.18 280C514.18 253.55 536.08 228.57 560 228.57C585.8 228.57 613.62 253.41 613.62 280C613.62 308.43 585.67 338.6 560 338.6C535.95 338.6 514.18 308.56 514.18 280" stroke="rgba(51, 121, 194, 0.58)" stroke-width="2"></path><path d="M1367.23 280C1367.23 260.59 1383.03 242.44 1400 242.44C1417.97 242.44 1437.11 260.49 1437.11 280C1437.11 301.27 1417.89 324 1400 324C1382.95 324 1367.23 301.37 1367.23 280" stroke="rgba(51, 121, 194, 0.58)" stroke-width="2"></path><path d="M0 381.64C11.62 381.64 39.44 401.15 39.44 420C39.44 438.28 11.79 455.9 0 455.9C-7.93 455.9 0 437.95 0 420C0 400.82 -8.1 381.64 0 381.64" stroke="rgba(51, 121, 194, 0.58)" stroke-width="2"></path><path d="M371.88 420C384.76 395.64 396.38 387.92 420 387.92C441.83 387.92 441.51 403.81 462.78 420C511.51 457.08 518.03 451.33 560 494.47C586.13 521.33 598.99 538.32 598.99 560C598.99 571.09 579.49 560 560 560C490 560 490 560 420 560C374.5 560 338.22 586.83 329 560C314.16 516.83 339.26 481.68 371.88 420" stroke="rgba(51, 121, 194, 0.58)" stroke-width="2"></path><path d="M637.78 420C637.78 394.77 669.78 362.86 700 362.86C728.34 362.86 754.9 394.47 754.9 420C754.9 441.22 727.96 456.36 700 456.36C669.4 456.36 637.78 441.52 637.78 420" stroke="rgba(51, 121, 194, 0.58)" stroke-width="2"></path><path d="M1225.81 420C1225.81 399.64 1242.05 388.39 1260 388.39C1280.45 388.39 1302.61 398.07 1302.61 420C1302.61 468.32 1279.43 528.89 1260 528.89C1241.03 528.89 1225.81 469.89 1225.81 420" stroke="rgba(51, 121, 194, 0.58)" stroke-width="2"></path><path d="M1942.93 420C1942.93 374.06 1955.7 326.67 1960 326.67C1964.23 326.67 1960 373.34 1960 420C1960 443.34 1964.13 466.67 1960 466.67C1955.6 466.67 1942.93 444.06 1942.93 420" stroke="rgba(51, 121, 194, 0.58)" stroke-width="2"></path><path d="M99.02 560C99.02 546.63 114.52 515.2 140 515.2C189.21 515.2 248.39 548.36 248.39 560C248.39 570.76 194.19 560 140 560C119.51 560 99.02 569.03 99.02 560" stroke="rgba(51, 121, 194, 0.58)" stroke-width="2"></path><path d="M959.64 560C959.64 552.96 965.48 538.78 980 536.67C1045.66 527.12 1050.82 529.83 1120 536.67C1168.72 541.49 1215.79 554.08 1215.79 560C1215.79 565.75 1167.89 560 1120 560C1050 560 1050 560 980 560C969.82 560 959.64 564.63 959.64 560" stroke="rgba(51, 121, 194, 0.58)" stroke-width="2"></path><path d="M1668.33 560C1668.33 556.65 1673.12 548.52 1680 548.52C1691.92 548.52 1705.93 557 1705.93 560C1705.93 562.74 1692.97 560 1680 560C1674.16 560 1668.33 562.39 1668.33 560" stroke="rgba(51, 121, 194, 0.58)" stroke-width="2"></path></g><defs><mask id="SvgjsMask1006"><rect width="1920" height="560" fill="#ffffff"></rect></mask></defs></svg>