<svg xmlns="http://www.w3.org/2000/svg" version="1.1" xmlns:xlink="http://www.w3.org/1999/xlink" xmlns:svgjs="http://svgjs.dev/svgjs" width="1440" height="560" preserveAspectRatio="none" viewBox="0 0 1440 560"><g mask="url(&quot;#SvgjsMask1000&quot;)" fill="none"><rect width="1440" height="560" x="0" y="0" fill="#0e2a47"></rect><path d="M671.07 577.61C781.08 559.08 727.96 301.92 1011.44 289.04 1294.92 276.16 1514.29 84.12 1692.17 81.84" stroke="rgba(51,121,194,0.58)" stroke-width="2"></path><path d="M176.69 615C308.51 598.42 381.55 301.18 603.77 298.74 826 296.3 817.32 368.74 1030.86 368.74 1244.4 368.74 1349.74 298.97 1457.94 298.74" stroke="rgba(51,121,194,0.58)" stroke-width="2"></path><path d="M798.05 661.83C925.85 655.61 1000.33 445.94 1256.07 433.41 1511.8 420.88 1586.15 210.12 1714.08 203.81" stroke="rgba(51,121,194,0.58)" stroke-width="2"></path><path d="M62.62 593.2C224.99 552.84 274.02 121.57 528.35 112.59 782.68 103.61 761.22 182.59 994.09 182.59 1226.95 182.59 1342.08 112.79 1459.82 112.59" stroke="rgba(51,121,194,0.58)" stroke-width="2"></path><path d="M673.29 627.66C795.25 584.2 744.96 223.76 994.55 221.48 1244.13 219.2 1472.36 366.17 1637.06 367.08" stroke="rgba(51,121,194,0.58)" stroke-width="2"></path></g><defs><mask id="SvgjsMask1000"><rect width="1440" height="560" fill="#ffffff"></rect></mask></defs></svg>