<svg xmlns="http://www.w3.org/2000/svg" version="1.1" xmlns:xlink="http://www.w3.org/1999/xlink" xmlns:svgjs="http://svgjs.dev/svgjs" width="1920" height="560" preserveAspectRatio="none" viewBox="0 0 1920 560"><g mask="url(&quot;#SvgjsMask1035&quot;)" fill="none"><rect width="1920" height="560" x="0" y="0" fill="#0e2a47"></rect><path d="M457.54 632.36C692.01 615.93 860.56 163.26 1271.98 162.66 1683.41 162.06 1874.51 395.52 2086.43 397.86" stroke="rgba(51,121,194,0.58)" stroke-width="2"></path><path d="M417.46 592.12C548.05 591.31 531.65 475.25 925.81 471.94 1319.97 468.63 1678.89 194.48 1942.52 191.94" stroke="rgba(51,121,194,0.58)" stroke-width="2"></path><path d="M555.01 621.7C696.07 620.18 825.4 466.38 1097.48 466.31 1369.55 466.24 1368.71 536.31 1639.94 536.31 1911.18 536.31 2045.67 466.45 2182.41 466.31" stroke="rgba(51,121,194,0.58)" stroke-width="2"></path><path d="M1037.84 560.19C1140.21 544.64 1096.48 309.1 1360.09 300 1623.7 290.9 1838.42 138.84 2004.58 137.6" stroke="rgba(51,121,194,0.58)" stroke-width="2"></path><path d="M1081.23 595.25C1271.57 553.41 1341.98 60.21 1641.42 53.17 1940.86 46.13 2058.51 170.14 2201.61 170.77" stroke="rgba(51,121,194,0.58)" stroke-width="2"></path></g><defs><mask id="SvgjsMask1035"><rect width="1920" height="560" fill="#ffffff"></rect></mask></defs></svg>