<svg width="69" height="36" viewBox="0 0 69 36" fill="none" xmlns="http://www.w3.org/2000/svg">
<path fill-rule="evenodd" clip-rule="evenodd" d="M1 34.1362L26 9L51.3 34.2387L49.9431 35.6L43.8254 29.3181H8.57687L2.94362 34.9368L2.26528 35.6H1.00553V34.1444L2.26528 35.6L1 34.1362ZM26 11.5L10.5226 27.3773H41.8796L26 11.5Z" fill="white"/>
<path fill-rule="evenodd" clip-rule="evenodd" d="M26.0315 15.9182C25.9937 15.8765 25.957 15.8341 25.9207 15.7921C25.7204 15.5606 25.532 15.3427 25.2482 15.3427C24.8698 15.3427 24.5629 15.6464 24.5629 16.0211C24.5629 16.3957 24.8698 16.6994 25.2482 16.6994C25.532 16.6994 25.7204 16.4816 25.9207 16.25C25.957 16.2081 25.9937 16.1657 26.0315 16.124C26.0692 16.1657 26.1059 16.2081 26.1422 16.25C26.3425 16.4816 26.5309 16.6994 26.8147 16.6994C27.1932 16.6994 27.5 16.3957 27.5 16.0211C27.5 15.6464 27.1932 15.3427 26.8147 15.3427C26.5309 15.3427 26.3425 15.5606 26.1422 15.7921C26.1059 15.8341 26.0692 15.8765 26.0315 15.9182ZM25.7742 16.1214C25.8022 16.0891 25.8314 16.0553 25.8619 16.0211C25.8314 15.9869 25.8022 15.9531 25.7742 15.9207L25.7723 15.9185C25.7044 15.84 25.6442 15.7707 25.583 15.7108C25.4607 15.5913 25.3611 15.5365 25.2482 15.5365C24.9779 15.5365 24.7587 15.7535 24.7587 16.0211C24.7587 16.2887 24.9779 16.5056 25.2482 16.5056C25.3611 16.5056 25.4607 16.4509 25.583 16.3314C25.6442 16.2715 25.7044 16.2022 25.7723 16.1236L25.7742 16.1214ZM26.2887 16.1214C26.2607 16.0891 26.2315 16.0553 26.201 16.0211C26.2315 15.9869 26.2607 15.9531 26.2887 15.9207L26.2906 15.9185C26.3586 15.84 26.4187 15.7707 26.4799 15.7108C26.6022 15.5913 26.7018 15.5365 26.8147 15.5365C27.085 15.5365 27.3042 15.7535 27.3042 16.0211C27.3042 16.2887 27.085 16.5056 26.8147 16.5056C26.7018 16.5056 26.6022 16.4509 26.4799 16.3314C26.4187 16.2715 26.3586 16.2022 26.2906 16.1236L26.2887 16.1214Z" fill="white"/>
<path d="M0.552078 0.455477V35.6355H2.51015V34.2921V4.38256L25.9976 22.0664L26.5834 21.6391C31.518 18.039 35.2218 15.3032 38.9238 12.5688C42.6255 9.83456 46.3253 7.10168 51.2548 3.50525L50.1018 1.92088C45.1671 5.521 41.4633 8.25679 37.7613 10.9912C34.2078 13.616 30.6373 16.3314 25.9976 19.7188L0.552078 0.455477Z" fill="#BDBDBD"/>
<path d="M67.2853 18.7541C67.2853 9.14331 55.8308 3.36292 51.5216 3.36292L51.4736 18.7541L51.4255 34.1454C63.761 34.1454 67.2853 28.365 67.2853 18.7541Z" stroke="#898989" stroke-width="3"/>
</svg>
