<svg xmlns="http://www.w3.org/2000/svg" version="1.1" xmlns:xlink="http://www.w3.org/1999/xlink" xmlns:svgjs="http://svgjs.dev/svgjs" width="1440" height="250" preserveAspectRatio="none" viewBox="0 0 1440 250"><g mask="url(&quot;#SvgjsMask1003&quot;)" fill="none"><rect width="1440" height="250" x="0" y="0" fill="#0e2a47"></rect><path d="M32 250L282 0L615 0L365 250z" fill="url(&quot;#SvgjsLinearGradient1004&quot;)"></path><path d="M251.60000000000002 250L501.6 0L689.1 0L439.1 250z" fill="url(&quot;#SvgjsLinearGradient1004&quot;)"></path><path d="M510.20000000000005 250L760.2 0L920.7 0L670.7 250z" fill="url(&quot;#SvgjsLinearGradient1004&quot;)"></path><path d="M725.8000000000001 250L975.8000000000001 0L1020.8000000000001 0L770.8000000000001 250z" fill="url(&quot;#SvgjsLinearGradient1004&quot;)"></path><path d="M1420 250L1170 0L1045.5 0L1295.5 250z" fill="url(&quot;#SvgjsLinearGradient1005&quot;)"></path><path d="M1174.4 250L924.4000000000001 0L661.9000000000001 0L911.9000000000001 250z" fill="url(&quot;#SvgjsLinearGradient1005&quot;)"></path><path d="M920.8 250L670.8 0L315.29999999999995 0L565.3 250z" fill="url(&quot;#SvgjsLinearGradient1005&quot;)"></path><path d="M687.1999999999999 250L437.19999999999993 0L393.69999999999993 0L643.6999999999999 250z" fill="url(&quot;#SvgjsLinearGradient1005&quot;)"></path><path d="M1236.191527845175 250L1440 46.19152784517493L1440 250z" fill="url(&quot;#SvgjsLinearGradient1004&quot;)"></path><path d="M0 250L203.80847215482507 250L 0 46.19152784517493z" fill="url(&quot;#SvgjsLinearGradient1005&quot;)"></path></g><defs><mask id="SvgjsMask1003"><rect width="1440" height="250" fill="#ffffff"></rect></mask><linearGradient x1="0%" y1="100%" x2="100%" y2="0%" id="SvgjsLinearGradient1004"><stop stop-color="rgba(93, 120, 175, 0.2)" offset="0"></stop><stop stop-opacity="0" stop-color="rgba(93, 120, 175, 0.2)" offset="0.66"></stop></linearGradient><linearGradient x1="100%" y1="100%" x2="0%" y2="0%" id="SvgjsLinearGradient1005"><stop stop-color="rgba(93, 120, 175, 0.2)" offset="0"></stop><stop stop-opacity="0" stop-color="rgba(93, 120, 175, 0.2)" offset="0.66"></stop></linearGradient></defs></svg>