<svg xmlns="http://www.w3.org/2000/svg" version="1.1" xmlns:xlink="http://www.w3.org/1999/xlink" xmlns:svgjs="http://svgjs.dev/svgjs" width="1440" height="560" preserveAspectRatio="none" viewBox="0 0 1440 560"><g mask="url(&quot;#SvgjsMask1016&quot;)" fill="none"><rect width="1440" height="560" x="0" y="0" fill="rgba(0, 75, 141, 1)"></rect><circle r="5.56" cx="914.04" cy="25.18" filter="url(#SvgjsFilter1017)" fill="rgba(255, 255, 255, 0.5)"></circle><circle r="5.075" cx="738.825" cy="557.505" filter="url(#SvgjsFilter1017)" fill="rgba(255, 255, 255, 0.5)"></circle><circle r="5.4" cx="926.9" cy="464.29999999999995" filter="url(#SvgjsFilter1017)" fill="rgba(255, 255, 255, 0.5)"></circle><circle r="5.74" cx="943.13" cy="456.90000000000003" filter="url(#SvgjsFilter1017)" fill="rgba(255, 255, 255, 0.5)"></circle><circle r="6.38" cx="561.39" cy="90.69" filter="url(#SvgjsFilter1017)" fill="rgba(255, 255, 255, 0.5)"></circle><circle r="6.76" cx="562.7" cy="480.46999999999997" filter="url(#SvgjsFilter1017)" fill="rgba(255, 255, 255, 0.5)"></circle><circle r="7.31" cx="280.99" cy="137.2" filter="url(#SvgjsFilter1017)" fill="rgba(255, 255, 255, 0.5)"></circle><circle r="6.79" cx="258.71" cy="9.29" filter="url(#SvgjsFilter1017)" fill="rgba(255, 255, 255, 0.5)"></circle><circle r="8.68" cx="818.0799999999999" cy="483.91" filter="url(#SvgjsFilter1017)" fill="rgba(255, 255, 255, 0.5)"></circle><circle r="7.37" cx="354.67" cy="474.11" filter="url(#SvgjsFilter1017)" fill="rgba(255, 255, 255, 0.5)"></circle><circle r="6.605" cx="37.665" cy="275.195" filter="url(#SvgjsFilter1017)" fill="rgba(255, 255, 255, 0.5)"></circle><circle r="7.78" cx="654.05" cy="410.69" filter="url(#SvgjsFilter1017)" fill="rgba(255, 255, 255, 0.5)"></circle><circle r="5.875" cx="231.115" cy="470.315" filter="url(#SvgjsFilter1017)" fill="rgba(255, 255, 255, 0.5)"></circle><circle r="8.35" cx="1250.1599999999999" cy="564.27" filter="url(#SvgjsFilter1017)" fill="rgba(255, 255, 255, 0.5)"></circle><circle r="6.865" cx="1437.435" cy="85.285" filter="url(#SvgjsFilter1017)" fill="rgba(255, 255, 255, 0.5)"></circle><circle r="8.4" cx="1435.5500000000002" cy="49.589999999999996" filter="url(#SvgjsFilter1017)" fill="rgba(255, 255, 255, 0.5)"></circle><circle r="8.355" cx="34.815" cy="35.004999999999995" filter="url(#SvgjsFilter1017)" fill="rgba(255, 255, 255, 0.5)"></circle><circle r="4.785" cx="22.935" cy="443.985" filter="url(#SvgjsFilter1017)" fill="rgba(255, 255, 255, 0.5)"></circle><circle r="8.77" cx="854.1999999999999" cy="101.7" filter="url(#SvgjsFilter1017)" fill="rgba(255, 255, 255, 0.5)"></circle><circle r="6.375" cx="914.175" cy="530.265" filter="url(#SvgjsFilter1017)" fill="rgba(255, 255, 255, 0.5)"></circle><path d="M247.5 292.7L294.9 316.2 299.9 329.9 278.5 354.5 263.8 351.9 234.4 307.7C234 307.2 234 307.2 233.5 306.8 232.5 306 231.1 305.6 229.4 306.6 228.1 308.1 227.8 309.5 228.8 311.2L254.6 349.8 232.1 345.5 220.5 328.6C220.5 328.6 220 328.2 220 328.2 219 327.3 217.6 327 215.9 328 214.6 328.5 214.3 330.8 215.3 332.6L222.4 343.9 205.9 340.5C204.5 340.1 202.7 341.2 202 343S203.1 346.6 205 347.4L221.1 350.3 210.2 357.9C208.5 358.9 208.2 361.2 209.2 362.9 210.2 363.8 212.1 364.6 213.8 363.5L230.7 351.9 253.7 356.7 215.1 382.5C213.4 383.5 213.1 385.8 213.6 387.1 215.1 388.4 217 389.2 218.7 388.1L262.4 358.3 277.6 361.4 287.9 391.5 277.8 403.1 225 407.2C223.2 407.3 221.9 408.8 222.1 410.6S223.6 413.6 225.5 413.5L271.9 409.8 256.4 427.7 236.5 429.1C234.7 429.2 233.4 430.7 233.2 432.9S234.7 436 236.5 435.9L250.5 434.5 239.2 447.5C237.9 449 238.5 451.2 239.9 452.4 241.4 453.7 243.2 453.6 244.5 452.1L255.8 439.1 256.7 452.6C256.4 454.9 257.9 456.2 260.1 455.6 261.9 455.4 263.2 454 263.1 452.2L261.7 432.3 277.2 414.5 280 461C280.1 462.8 282.1 464.5 283.9 464.4S286.9 462.8 286.8 461L283.1 407.7 293.2 396.1 324.9 402.5 329.6 416.7 306.1 464.2C305.3 466 306.3 467.8 307.8 469 309.7 469.8 311.4 468.8 312.7 467.4L332.9 425.6 340.3 447.3 331.1 465.6C330.4 467.5 331.4 469.2 332.8 470.5 334.2 470.8 336.4 470.2 337.2 468.4L343.2 456.6 348.9 472.6C349.4 473.9 351.3 474.7 353.1 474.5 354.8 473.5 355.6 471.6 355 470.3L349.4 454.4 362.1 460.3C363.5 460.6 365.7 460 366 458.7 367.3 457.2 366.8 455.9 365.3 454.6 365.3 454.6 364.8 454.2 364.8 454.2L346.5 445 339.1 423.3 380.9 443.6C382.7 444.3 384.5 444.2 385.3 442.3 386.1 440.5 385.5 439.2 384.6 438.3 384.1 437.9 384.1 437.9 384.1 437.9L335.8 414.5 331.1 400.3 352.6 375.7 366.8 378.8 397.1 422.9C397.7 424.3 400 424.5 401.3 424 403 423 403.3 420.7 402.3 418.9L376.5 380.4 399 384.7 410.6 401.6C411.6 403.3 413.5 404.1 414.8 402.7 416.5 401.6 416.8 399.3 416.3 398L408.2 386.8 424.8 390.2C426.6 390 428.3 389 429.1 387.1 429.1 386.2 428.5 384.9 427.5 384.1 427.1 383.7 427.1 383.7 426.2 383.7L409.6 380.3 420.8 372.3C422.6 371.3 422.4 369.5 421.9 368.1 421.4 367.7 421.4 367.7 420.9 367.3 420 366.5 418.6 366.1 417.3 366.6L400.4 378.2 377.8 373.9 416.4 348.1C417.7 346.7 418.5 344.8 417 343.5 417 342.6 417 342.6 416.5 342.2 415.5 341.4 413.7 341.5 412.4 342L368.2 372.3 353.9 369.2 343.2 338.7 352.9 327.6 406.1 323.9C407.9 323.7 409.6 321.8 409.5 320S407.4 316.5 405.6 316.6L359.2 320.3 374.3 302.9 394.6 301.1C396.4 301 397.6 299.5 397.5 297.7 397.4 295.9 395.9 294.6 394.1 294.8L380.6 295.7 391.9 282.7C392.8 281.7 393.1 279.4 391.6 278.1 390.2 276.9 387.5 277.1 386.6 278L375.3 291.1 374.3 277.5C374.3 276.6 374.2 275.7 373.7 275.3 372.8 274.5 371.9 274.5 371 274.6 369.1 274.7 367.9 276.2 368 278L369 298.3 353.8 315.7 351.1 269.2C351 268.3 350.5 267.8 349.6 267 349.1 266.6 348.6 266.2 347.7 266.2 345.9 266.4 344.2 268.3 344.3 270.1L347.5 322.9 337.9 334 306.6 328 301.1 313.9 325 266C325.3 264.6 325.2 262.8 324.3 262 323.8 261.5 323.8 261.5 323.4 262 321.9 260.8 319.7 261.4 318.9 263.2L298.7 305 290.8 282.9 299.9 264.5C300.3 263.2 299.8 261.8 298.8 261 298.8 261 298.3 260.6 298.3 260.6 296.9 259.3 294.6 259.9 293.9 261.8L287.9 274.5 282.3 258.5C282.2 257.6 281.7 257.2 281.3 256.8 280.3 255.9 278.9 255.6 278.5 256.1 276.3 256.7 275.5 258.5 275.6 260.3L281.3 276.3 269.5 270.3C267.6 269.5 265.4 270.1 264.6 272 264.3 273.4 264.9 275.6 266.3 276L284.6 285.1 292 306.8 250.2 286.6C248.3 285.8 246.6 286.9 245.3 288.3 245 289.7 245.6 291.9 247.5 292.7ZM286.3 356.2L302.7 337.4 305.3 334.5 308.9 335.1 332.8 339.8 337 340.9 338.2 344.5 346.1 367.5 347.3 371 344.7 373.9 328.3 392.8 325.8 395.7 322.2 395 298.2 390.3 294.6 389.7 292.9 385.7 285 362.7 283.8 359.1 286.3 356.2Z" fill="rgba(255, 255, 255, 0.5)"></path><path d="M1075.7 488.2L1092.4 493.6 1083.9 501.9C1083 502.6 1082.8 504.4 1083.7 505.9 1085 506.8 1086.8 506.9 1087.8 506.2L1099.2 495.6 1114.7 500.7 1091.3 522C1089.9 523.5 1089.7 525.2 1091.1 526.1 1092 527.6 1093.7 527.8 1095.1 526.3L1120.9 502.8 1135 507.1 1142.5 540.4 1133 549.4 1097.7 537.8C1097.2 537.9 1096.6 538 1096.1 538.2 1095.5 538.3 1094.5 539.1 1094.1 539.7 1093.4 541.6 1094.3 543.1 1096.1 543.3L1128.3 553.9 1116.3 564.6 1099.7 559.7C1099.6 559.2 1099.1 559.3 1098.5 559.4 1097.4 559.7 1096.5 560.4 1096.2 561.7 1095.9 562.9 1096.8 564.4 1098.1 565.2L1111.6 569.1 1096.9 582.7C1095.9 583.5 1095.7 585.3 1096.6 586.8 1098 587.7 1099.7 587.8 1100.7 587L1114.5 574.2 1117 585.7C1117.4 587.3 1119.3 588.1 1120.4 587.8 1122 587.4 1123.4 586 1123 584.3L1119.7 569.6 1131.7 558.9 1138.5 589.5C1138.9 591.1 1140.2 592 1141.9 591.6 1143.5 591.2 1144.4 589.9 1144 588.3L1136.4 554.4 1146.3 544.7 1179.1 555.2 1181.9 567.7 1155.7 591.9C1154.2 592.9 1154.1 595.2 1155.5 596 1156.4 597.5 1158 597.2 1159.6 596.3L1183.3 574.3 1186.9 590.1 1174.9 600.9C1174 601.6 1173.9 604 1174.7 604.9S1177.8 605.9 1179.3 605L1188.3 596.7 1192.6 615.8C1193 617.5 1194.9 618.2 1196.5 617.8 1197.6 617.6 1199 616.1 1198.6 614.5L1194.4 595.4 1206.6 598.9C1207.8 599.2 1209.5 598.9 1210.2 597 1210.5 595.8 1209.5 593.7 1208.3 593.4L1192.9 588.8 1189.3 573 1220.2 582.7C1222 582.9 1223.6 582.5 1224.3 580.6 1224.6 579.4 1223.6 577.3 1222.4 577L1187.9 566.4 1185.1 553.8 1210.2 530.4 1223.3 534.9 1230.9 568.8C1231.3 570.5 1232.6 571.3 1234.2 570.9 1235.9 570.6 1237.3 569.1 1236.9 567.5L1230.1 536.9 1245.4 541.5 1248.7 556.2C1249.1 557.9 1250.4 558.7 1252.1 558.3 1253.7 558 1254.6 556.6 1254.2 555L1251.6 543.5 1269.6 549.3C1270.8 549.6 1272.8 548.5 1273.1 547.3 1273.3 545.6 1272.9 543.9 1271.2 543.7L1252.6 537.6 1262.6 528.4C1263.4 527.1 1263.6 525.3 1262.8 524.4 1262 523.4 1260.8 523.1 1259.7 523.3 1259.7 523.3 1259.2 523.5 1258.8 524.1L1245.8 535.6 1230.5 531 1255.1 507.7C1256.6 506.8 1256.8 505.1 1255.3 503.7 1254.7 503.2 1254 502.8 1252.9 503.1 1252.4 503.2 1251.8 503.3 1251.3 503.4L1224.3 529 1211.9 524.9 1204.4 491.5 1215.4 481.6 1248.7 492C1250.6 492.7 1252.1 491.8 1252.3 490 1253.1 488.7 1252.2 487.2 1250.3 486.4L1220.1 477.1 1232 465.9 1246.8 470.6C1248 470.9 1249.5 470 1250.4 468.6 1250.5 466.9 1250.2 465.2 1248.4 465.1L1237.2 461.2 1250 449.2C1251.6 448.3 1251.2 446.6 1250.3 445.1 1249.6 444.7 1248.4 444.4 1247.3 444.6 1247.3 444.6 1246.7 444.8 1246.2 444.9L1232.4 457.7 1229.4 444.1C1229.1 443 1227.7 441.6 1226 441.9 1224.4 442.3 1223.7 444.2 1223.9 445.3L1227.7 462.2 1215.9 473.5 1208.4 440.1C1208 438.5 1206.2 437.8 1204.5 438.1S1202 439.9 1202.4 441.5L1210.6 478.1 1200.6 487.2 1167.8 476.8 1164.7 462.6 1191.3 438.2C1192.2 436.9 1192.4 435.1 1191.5 433.6 1190.8 433.2 1189.6 432.9 1188.5 433.1 1187.9 433.2 1187.4 433.4 1187 434L1163.2 456 1159.6 440.2 1171.5 428.9C1172.4 428.1 1172.6 426.3 1171.7 424.8 1170.4 424 1168.6 423.8 1167.6 424.6L1158.2 433.6 1154.3 416.1C1154 415 1152 413.7 1150.9 414 1149.3 414.4 1148 416.4 1148.2 417.5L1152.2 434.9 1140.3 430.7C1139.8 430.8 1139.2 430.9 1138.7 431.1 1137.6 431.3 1136.6 432.1 1136.2 432.8 1136 434.5 1136.9 436.1 1138.3 436.9L1153.6 441.5 1157.2 457.3 1126.3 447.6C1124.4 446.9 1122.9 447.8 1122.6 449 1121.9 450.9 1122.8 452.4 1124.1 453.3L1158.6 463.9 1161.8 478.1 1136.6 501.5 1123.7 497.5 1115.5 460.9C1115.1 459.3 1113.8 458.4 1112.2 458.8 1110.5 459.2 1109.7 460.5 1110 462.2L1117.5 495.5 1102 490.3 1098.2 473.4C1098 472.3 1096 471 1094.3 471.4 1092.7 471.8 1092 473.7 1092.2 474.7L1095.3 488.4 1077.3 482.7C1076.8 482.8 1076.8 482.8 1076.2 482.9 1075.1 483.2 1074.2 483.9 1073.8 484.6 1073.6 486.4 1074.5 487.9 1075.7 488.2ZM1163.3 484.7L1166.2 482.3 1169.3 483.3 1195.9 491.7 1199 492.8 1199.7 496 1205.7 522.8 1206.4 526.1 1204 528.3 1183.6 547.3 1181.2 549.5 1177.6 548.6 1151.6 540.1 1147.9 539.2 1147.2 535.9 1141.2 509.1 1140.5 505.8 1143.4 503.5 1163.3 484.7Z" fill="rgba(255, 255, 255, 0.5)"></path><path d="M1361.2 135.4L1343.2 143.2 1344.1 131.4C1344.3 130.2 1343.2 128.8 1341.5 128.2 1340 128.5 1338.5 129.5 1338.8 131.1L1337.2 145.8 1323.4 152.5 1326.8 121.8C1326.6 120.3 1325.5 118.8 1324.3 118.6 1322.3 118.6 1320.8 119.6 1321.1 121.2L1317.5 155.1 1296.2 164.6 1301.9 138.4 1278.9 152.2 1281 129 1312 114.6C1312.4 115 1312.8 114.5 1313.1 114.1 1313.8 113.2 1314 111.9 1313.4 110.8 1312.8 109.7 1311.1 109.2 1309.5 109.4L1281.6 122.5 1283.5 107.3 1296.9 101.1C1297.7 101 1298 100.5 1298.3 100 1298.7 99.6 1298.9 98.4 1298.3 97.2 1297.7 96.1 1296 95.6 1294.9 96.2L1284 100.8 1285.6 81.3C1286.1 79.6 1284.8 78.6 1283.1 78.1 1281.9 77.9 1280.4 78.9 1280.4 80.9L1278.3 100.1 1268.7 93.3C1267.4 92.3 1265.5 93 1264.8 93.9 1263.9 95.3 1264.1 96.9 1265.5 97.8L1277.8 106.6 1275.9 121.8 1251.3 104.2C1249.9 103.2 1248.3 103.5 1247.4 104.8 1246.7 105.7 1246.6 107.8 1248 108.7L1275.3 128.3 1273.1 151.6 1253.4 133.9 1253.7 160.4 1234.6 146.7 1237.9 113.2C1238 111.2 1236.6 110.2 1235.4 110 1234.1 109.8 1232.7 110.9 1232.2 112.6L1229.6 143.1 1217.3 134.3 1218.4 119.2C1219 117.5 1217.9 116.1 1215.9 116 1214.7 115.8 1213.2 116.9 1213.2 118.9L1211.8 130.4 1195.9 118.9C1194.5 118 1193 118.2 1192 119.6S1191.3 122.5 1192.7 123.5L1208.6 134.9 1198.2 139.8C1196.3 140.5 1195.7 142.2 1196.3 143.3 1197 145.2 1198.7 145.8 1200.2 144.7L1214 138.8 1226.3 147.6 1198.3 159.9C1196.8 160.9 1196.3 162.6 1196.9 163.7 1197.6 165.6 1199.3 166.1 1200.7 165.1L1231.3 151.2 1250.5 164.9 1225.3 173.1 1248.3 186.1 1227 195.7 1199.7 176.1C1198.4 175.1 1196.5 175.8 1195.8 176.7 1194.8 178.1 1195.1 179.7 1196.5 180.6L1221.5 198.6 1207.3 204.9 1195 196.1C1193.6 195.2 1192.1 195.4 1191.1 196.8 1190.4 197.7 1190.4 199.7 1191.7 200.7L1201.3 207.5 1183.8 215.6C1181.9 216.4 1181.4 218.1 1182.4 219.5 1183 220.6 1184.3 221.6 1185.8 220.5L1203.8 212.8 1202.9 224.5C1202.7 225.8 1203.7 227.2 1205 227.4 1206.2 227.6 1207.3 227 1207.6 226.6 1208 226.1 1208.3 225.7 1208.2 224.9L1209.7 210.2 1223.5 203.5 1220.1 234.1C1220.4 235.7 1221.4 237.1 1222.7 237.3 1223.9 237.5 1225 236.9 1225.7 236 1226 235.6 1226 235.6 1225.8 234.8L1229.5 200.9 1250.8 191.4 1245.1 217.6 1268.1 203.8 1265.9 227 1235 241.3C1233.8 241.9 1232.9 243.3 1233.6 245.2 1234.2 246.3 1235.9 246.8 1237.4 246.5L1265.4 233.5 1263.5 248.7 1250 254.9C1248.5 255.1 1247.9 256.8 1248.7 258.7 1249.2 259.8 1250.9 260.4 1252.5 260.1L1262.9 255.2 1261.3 274.7C1260.8 276.4 1262.2 277.4 1263.9 277.9 1264.6 277.8 1265.7 277.2 1266.1 276.7 1266.4 276.3 1266.7 275.8 1266.6 275L1268.6 255.8 1278.2 262.7C1279.6 263.7 1281.5 263 1282.1 262L1282.1 262C1283.1 260.7 1282.8 259.1 1281.5 258.1L1269.2 249.3 1271.1 234.2 1295.7 251.8C1297 252.8 1298.6 252.5 1299.6 251.1S1300.3 248.2 1298.9 247.2L1271.6 227.7 1273.8 204.4 1293.6 222 1293.2 195.6 1312.3 209.3 1309 242.8C1309 244.8 1310.3 245.8 1311.6 246 1312.8 246.1 1314.2 245.1 1314.8 243.4L1317.8 213.2 1329.6 221.7 1328.5 236.7C1328 238.4 1329 239.9 1331 239.9 1332.3 240.1 1333.7 239.1 1334.2 237.4L1335.1 225.6 1351 237C1352.4 238 1354 237.8 1354.9 236.4S1355.7 233.5 1354.3 232.5L1338.4 221.1 1348.8 216.1C1349.6 216 1349.9 215.6 1350.2 215.1 1350.9 214.2 1350.7 213.4 1350.6 212.6 1349.9 210.7 1348.2 210.2 1346.8 211.3L1332.9 217.2 1320.6 208.3 1348.7 196.1C1349 195.6 1349.3 195.2 1349.7 194.7 1350.3 193.8 1350.2 193 1350.1 192.2 1349.4 190.4 1347.7 189.8 1346.2 190.9L1315.6 204.8 1296.5 191 1321.6 182.9 1298.6 169.8 1319.9 160.3 1347.2 179.9C1348.6 180.9 1350.5 180.1 1351.1 179.2 1352.1 177.9 1351.9 176.3 1350.5 175.3L1325.9 157.7 1339.7 151 1351.9 159.8C1353.3 160.8 1354.9 160.6 1355.9 159.2S1356.6 156.3 1355.2 155.3L1345.7 148.4 1363.2 140.3C1364 140.2 1364.3 139.7 1364.6 139.3 1364.9 138.8 1365.1 137.6 1364.6 136.5 1364 135.4 1362.6 134.4 1361.2 135.4ZM1308.2 181.5L1287.6 188.1 1287.9 209.7 1271.5 195.2 1253.2 206.2 1257.4 185.1 1238.8 174.5 1259.4 167.9 1259 146.3 1275 160.5 1293.7 149.8 1289.1 170.6 1308.2 181.5Z" fill="rgba(255, 255, 255, 0.5)"></path><path d="M1458.8 416.8L1446.5 419 1449 410.9C1449.4 410.1 1448.9 408.9 1447.8 408.3 1446.7 408.2 1445.5 408.7 1445.2 409.5L1441.5 420 1430.1 422 1437.6 400.7C1438 399.3 1437.5 398.2 1436.4 398.1 1435.3 397.4 1434.2 397.9 1433.8 399.3L1425.5 422.8 1415.1 424.8 1399.2 406.3 1402.1 397.4 1428.3 392.9C1428.6 392.6 1428.9 392.4 1429.2 392.1 1429.5 391.9 1429.9 391 1429.9 390.5 1429.7 389 1428.6 388.4 1427.5 388.9L1403.6 393 1407.6 382.2 1419.7 379.8C1419.9 380.1 1420.2 379.8 1420.5 379.5 1421.1 379 1421.5 378.2 1421.3 377.3 1421 376.5 1420 375.8 1418.8 375.7L1409 377.8 1413.8 364.3C1414.1 363.5 1413.6 362.3 1412.5 361.6 1411.4 361.5 1410.2 362 1409.9 362.8L1405.5 375.6 1400 369.2C1399.3 368.3 1397.8 368.5 1397.2 369 1396.3 369.8 1395.9 371.1 1396.7 372.1L1403.7 380.3 1399.8 391 1385.2 374C1384.4 373.1 1383.3 373 1382.4 373.8 1381.5 374.6 1381.4 375.7 1382.2 376.6L1398.3 395.4 1395.3 404.9 1371.2 409.2 1365.2 402.3 1373.5 378.2C1374.2 377.1 1373.5 375.7 1372.3 375.6 1371.2 374.9 1370.3 375.7 1369.7 376.8L1362.1 398.6 1354.5 389.8 1358.4 379.1C1358.8 378.2 1358.1 376.8 1357.2 376.4S1354.9 376.8 1354.3 377.9L1351.4 386.2 1342.3 375.6C1341.5 374.6 1340 374.8 1339.1 375.6 1338.5 376.1 1338.1 377.5 1338.9 378.4L1348 389 1339.1 390.9C1338.2 391.1 1337.3 391.9 1337.5 393.3 1337.7 394.2 1339.1 395.2 1339.9 394.9L1351.2 392.7 1358.7 401.5 1336 405.7C1334.8 406.2 1333.9 407 1334.1 408.4 1334.3 409.3 1335.6 410.2 1336.5 410L1361.8 405.1 1367.8 412.1 1359.8 435.3 1350.1 436.9 1333.9 418C1333.1 417.1 1332 417 1331.1 417.8 1330.2 418.6 1329.8 420 1330.6 420.9L1345.2 437.9 1333.9 440.2 1326.9 432C1326.1 431.1 1325 431 1324.1 431.7 1323.2 432.5 1323.1 433.7 1323.8 434.6L1329.3 440.9 1316.1 443.3C1315.2 443.6 1314.3 444.9 1314.5 445.8 1315 446.9 1315.7 447.8 1316.9 447.4L1330.7 445 1327.5 454.1C1327.4 455.3 1327.9 456.4 1328.7 456.8 1329.5 457.1 1330.4 456.9 1331 456.4 1331 456.4 1331.3 456.1 1331.3 455.6L1335.6 444 1346.8 441.7 1339.1 464.7C1338.5 465.8 1339 466.9 1340.4 467.3 1340.9 467.4 1341.5 467.4 1342.1 466.9 1342.4 466.6 1342.7 466.4 1343 466.1L1351.4 440.9 1360.6 439.4 1376.5 457.9 1372.9 467.8 1348.5 472.5C1347 472.6 1346.4 473.7 1346.9 474.9 1346.8 476 1347.9 476.7 1349.3 476.5L1371.5 472.2 1367.8 483.3 1356.8 485.3C1356 485.5 1355.3 486.6 1355.2 487.7 1355.7 488.9 1356.5 489.8 1357.7 489.3L1366 488 1362 499.9C1361.3 501 1362.1 501.9 1363.2 502.5 1363.8 502.6 1364.6 502.4 1365.2 501.8 1365.2 501.8 1365.5 501.6 1365.8 501.3L1370.2 488.6 1376.7 496.2C1377.2 496.8 1378.6 497.2 1379.5 496.4 1380.5 495.6 1380.3 494.2 1379.8 493.6L1371.7 484.2 1375.4 473.1 1391.3 491.6C1392 492.5 1393.5 492.4 1394.4 491.6S1395.4 489.7 1394.6 488.8L1377.1 468.4 1380.4 459.3 1404.6 454.9 1411.3 462.8 1402.7 487.1C1402.6 488.2 1403.1 489.4 1404.1 490.1 1404.7 490.1 1405.6 489.9 1406.2 489.4 1406.5 489.1 1406.8 488.8 1406.8 488.3L1414.5 466.5 1422 475.3 1418.3 486.3C1418 487.1 1418.5 488.3 1419.5 489 1420.7 489.1 1421.8 488.6 1422.2 487.8L1425.1 478.9 1433.5 488.6C1434 489.2 1435.7 489.4 1436.3 488.8 1437.2 488 1437.3 486.4 1436.8 485.7L1428.5 476 1437.4 474.7C1437.7 474.5 1438 474.2 1438.3 473.9 1438.9 473.4 1439.2 472.6 1439.3 472 1438.8 470.9 1437.7 470.2 1436.6 470.1L1425.3 472.4 1417.8 463.6 1440.5 459.4C1442 459.2 1442.6 458.1 1442.4 457.2 1442.2 455.8 1441.1 455.2 1440 455.1L1414.7 459.9 1407.9 452.1 1415.9 428.8 1425.4 427 1442.9 447.3C1443.6 448.3 1444.8 448.3 1445.7 447.6 1446.6 446.8 1446.7 445.7 1445.9 444.7L1430 426.2 1441.5 424.3 1449.6 433.7C1450.1 434.3 1451.8 434.4 1452.7 433.6 1453.6 432.9 1453.4 431.4 1452.9 430.8L1446.4 423.2 1459.6 420.8C1459.9 420.6 1459.9 420.6 1460.2 420.3 1460.9 419.8 1461.2 419 1461.2 418.4 1460.8 417.2 1459.7 416.6 1458.8 416.8ZM1404.8 448.4L1403.7 450.9 1401.4 451.3 1381.9 454.9 1379.6 455.3 1378 453.5 1365.2 438.6 1363.7 436.8 1364.4 434.5 1371 415.8 1371.7 413.5 1374.3 412.9 1393.6 409.5 1396.2 408.9 1397.7 410.7 1410.5 425.6 1412 427.4 1411 429.9 1404.8 448.4Z" fill="rgba(255, 255, 255, 0.5)"></path><path d="M958 267.4L942.1 318 900 339.6 902.3 292.4 941.9 257C941.9 257 942.2 256.4 942.2 256.4 942.9 255.4 942.6 253.6 941.8 252.4 940.6 250.8 938.3 250.8 937.2 252.4L902.7 283.5 903.8 260.6 918.8 246.7C918.8 246.7 919.2 246.1 919.2 246.1 919.9 245.1 919.5 243.3 918.8 242.1 917.5 240.5 915.2 240.5 914.2 242.1L903.6 251.3 904.6 234.5C904.8 233 903 231.1 901.6 230.9 899.6 230.4 898.2 232.6 898.1 234L897.1 250.9 887.9 240.4C886.6 238.8 884.3 238.8 883.2 240.4 881.7 241.7 881.7 244 883.3 245.1L897.2 260.1 895.6 282.7 864.5 248.2C863.3 246.6 861 246.6 859.9 248.3 858.3 249.5 858.4 251.8 860 252.9L895.4 292.5 893.1 339.7 852.7 313.7 841.5 261.5C841.1 259.7 839.5 258.7 837.7 259.1 835.9 259.4 834.9 261 835.3 262.8L845.2 308.8 825.8 296.3 821.7 276.9C821.3 275.1 819.7 274.1 817.9 274.4 816.1 274.8 815.1 276.4 815.5 278.2L818.3 291.5 803.3 281.8C802 280.2 799.9 281.1 798.8 282.7 797.8 284.3 798.2 286.1 799.8 287.1L813.8 296.2 800.5 299C798.7 299.4 797.7 301 798.1 302.8S800.1 305.6 801.8 305.2L821.3 301 840.7 313.5 794.6 323.4C792.9 323.8 791.8 325.4 792.2 327.2 792.6 329 794.2 330 796 329.6L848.2 318.4 888 344.1 845.9 365.6 796.6 349.8C794.7 349.3 793.1 350.6 792.1 352.2 791.6 354.2 792.8 355.8 794.4 356.8L838.7 370.9 818.2 381.3 798.8 374.8C796.8 374.3 795.2 375.6 794.2 377.2 793.7 379.2 795 380.8 796 381.5L809.4 385.5 794.4 393.4C793.2 394.1 791.8 396.3 793.1 397.8 794.4 399.4 796 400.5 797.5 399.2L812.5 391.3 808.5 404.7C808 406.7 809.2 408.2 810.3 408.9 811.7 409.1 813.5 408.7 814.2 407.6 814.2 407.6 814.5 407.1 814.5 407.1L821 387.7 841.4 377.2 827.3 421.5C826.8 423.4 828.1 425 829.2 425.7 830.6 425.9 832.4 425.5 833.1 424.4 833.1 424.4 833.4 423.9 833.4 423.9L849.4 373.2 891.5 351.6 889.1 398.9 849.5 434.3C848 435.5 848 437.8 849.6 438.9 850.9 440.5 853.2 440.4 854.2 438.8L888.7 407.8 887.7 430.7 872.6 444.6C871 445.8 871.1 448.2 872.7 449.2 873.9 450.8 876.2 450.7 877.3 449.1L887.8 439.9 886.8 456.8C886.7 458.2 888.5 460.1 889.9 460.3 891.3 460.5 892.5 459.7 893.2 458.7 893.6 458.1 893.9 457.6 893.7 456.7L894.7 439.8 903.9 450.3C905.2 451.9 907.5 451.9 908.5 450.3 908.5 450.3 908.9 449.7 908.9 449.7 909.6 448.6 909.2 446.9 908.5 445.6L894.6 430.6 895.7 407.7 926.7 442.2C928 443.8 930.3 443.7 931.3 442.1 931.3 442.1 931.7 441.6 931.7 441.6 932.4 440.5 932 438.7 931.3 437.5L895.9 397.9 898.2 350.6 938 376.3 949.2 428.5C949.6 430.3 951.2 431.3 953 431 954.8 430.6 955.8 429 955.4 427.2L946 381.5 965.4 394 969.6 413.5C970 415.3 971.6 416.3 973.4 415.9S976.2 413.9 975.8 412.2L972.9 398.9 986.9 407.9C988.5 409 990.3 408.6 991.3 407 992.4 405.3 992 403.6 990.4 402.5L976.4 393.5 989.7 390.7C990.6 390.5 991.4 390.3 992.1 389.2S992.6 387.2 992.5 386.4C992.1 384.6 990.5 383.5 988.7 383.9L969.2 388.1 949.9 375.6 995.9 365.7C996.8 365.5 997.6 365.3 998.3 364.3 998.7 363.7 998.8 362.3 998.7 361.4 998.3 359.6 996.7 358.6 994.9 359L942.7 370.2 902.9 344.5 945 323 995.7 338.9C997.1 339.1 998.8 338.7 999.5 337.6 999.5 337.6 999.9 337.1 999.9 337.1 1000.4 335.1 999.1 333.5 998.1 332.8L953.8 318.8 974.3 308.3 993.7 314.8C995.1 314.9 996.9 314.6 997.6 313.5 997.6 313.5 997.9 313 997.9 313 998.4 311 997.2 309.4 996.1 308.7L982.7 304.7 997.7 296.8C998 296.3 998.9 296.1 999.3 295.5 1000 294.5 1000.1 293 999.4 291.8 998.1 290.2 996.5 289.2 994.9 290.5L980 298.3 984 284.9C984.5 283 983.3 281.4 982.2 280.7 980.2 280.2 978.6 281.5 978 282.5L971.5 302 951.1 312.4 965.1 268.2C965.6 266.2 964.4 264.6 963.3 263.9 960.6 264.5 958.5 265.4 958 267.4Z" fill="rgba(255, 255, 255, 0.5)"></path><path d="M470.6 226.7L479.3 188 488.3 181.9 510.1 193.1 510.8 204.3 483.8 233.6C483.6 234 483.6 234 483.4 234.4 483 235.3 482.9 236.3 484 237.4 485.3 238.1 486.4 238.1 487.4 237L510.9 211.4 511.8 228.5 501.6 240C501.6 240 501.4 240.4 501.4 240.4 500.9 241.3 500.9 242.4 502 243.4 502.6 244.3 504.3 244.1 505.4 243.1L512.4 235.8 512.8 248.5C512.8 249.6 513.9 250.7 515.4 250.9S517.8 249.4 518 247.9L517.3 235.7 524.7 242.2C525.8 243.3 527.5 243.1 528.6 242.1 529 241.2 529.3 239.7 528.2 238.6L516.7 228.4 516.1 210.8 541.8 234.3C542.9 235.4 544.6 235.2 545.4 234.5 546.1 233.3 546.3 231.8 545.3 230.7L515.8 204.1 515.3 192.5 535.4 179.7 545.6 185 558 222.7C558.4 224 559.7 224.6 561 224.2S563 222.5 562.6 221.2L551.6 188 567.4 196.2 571.9 210.4C572.3 211.7 573.6 212.4 575.3 212.2S577.3 210.5 576.9 209.2L573.4 199.3 584.9 205.2C586.2 205.9 587.7 205 588.3 203.7 589 202.5 588.6 201.2 587.3 200.5L575.8 194.6 585.5 191.5C587.2 191.3 587.9 190 587 188.5 586.6 187.2 585.3 186.5 584 186.9L569.8 191.5 554 183.3 587.4 173C588.7 172.6 589.6 170.9 589.2 169.6S587.5 167.7 586.2 168.1L548 180.3 537.8 175 536.8 150.7 546.3 144.8 585.1 153.5C586.6 153.7 587.7 152.6 588.3 151.4 588.6 149.9 587.5 148.8 586.2 148.1L552.2 140.8 566.7 131.5 581.7 135C583.2 135.2 584.3 134.1 584.9 132.8 584.9 131.8 584.1 130.3 582.6 130L573 127.8 583.6 120.8C584.4 120.2 584.7 118.7 584.3 117.4 583.2 116.3 581.7 116.1 580.8 116.7L570.2 123.6 572.3 113.4C572.3 112.3 571.5 110.8 570.4 110.8 569.1 110.1 568.2 110.7 567.6 112 567.6 112 567.4 112.5 567.4 112.5L563.9 127.4 549.4 136.7 556.7 102.7C557 101.2 556.6 99.9 555.1 99.6 553.6 99.4 552.7 100 552.3 100.9 552 101.3 552 101.3 552 101.3L543.6 140.7 534.1 146.6 512.3 135.4 512 124.4 538.8 94.5C539.7 93.9 539.5 92.1 538.9 91.3 537.8 90.2 536.1 90.4 535 91.4L511.5 117.1 510.6 99.9 520.9 88.5C521.9 87.4 522.2 85.9 520.9 85.3 519.8 84.2 518.1 84.4 517.2 85L510.5 92.8 510 80.2C509.6 78.9 508.5 77.8 507 77.6 506.4 77.8 505.5 78.4 505.1 79.3 504.9 79.7 504.9 79.7 505.1 80.3L505.6 93 497.7 86.2C496.6 85.2 495.3 85.6 494.5 86.2 494.3 86.6 494.3 86.6 494 87.1 493.6 87.9 493.6 89 494.2 89.9L505.7 100.1 506.5 117.3 480.9 93.8C479.6 93.1 478.1 92.9 477.4 94.2 476.8 94.4 476.8 94.4 476.6 94.8 476.1 95.6 476.5 96.9 477.2 97.8L507.1 124.6 507.4 135.5 487 148.8 477.2 143.7 465 105.6C464.6 104.3 462.9 103.4 461.6 103.8S459.5 106 459.9 107.2L470.8 140.4 455.5 132.5 450.5 118.1C450.1 116.8 448.8 116.1 447.5 116.5 446.2 116.9 445.6 118.2 446 119.5L449.1 129.2 437.6 123.3C436.7 122.8 435 123 434.3 124.3 433.7 125.6 434.3 127.5 435.1 128L446.7 133.9 437 137C436.3 137.2 435.7 137.4 435.4 137.9 435 138.7 435.2 139.4 435.4 140 435.8 141.3 437.1 142 438.4 141.5L453.1 137.2 468.4 145.1 435 155.5C434.4 155.7 434.1 156.1 433.7 156.9 433.5 157.4 433.3 157.8 433.5 158.4 433.9 159.7 435.6 160.6 436.9 160.2L474.8 148.4 484.6 153.5 485.8 177.3 476.5 183.9 437.3 175C436.3 175 435 175.4 434.5 176.3 434.3 176.7 434.3 176.7 434.7 176.9 434.1 178.2 434.9 179.7 436.4 179.9L470.5 187.2 455.7 196.9 440.8 193.5C439.7 193.5 438.8 194.1 438.4 195 438.4 195 438.2 195.4 438.2 195.4 437.5 196.7 438.3 198.2 439.8 198.4L450.1 200.5 439.5 207.5C438.9 207.7 438.6 208.1 438.4 208.5 438 209.4 438 210.4 438.4 210.7 439.2 212.2 440.7 212.4 442 212L452.6 205 450.4 214.7C450.1 216.2 451 217.7 452.5 217.9 453.5 217.9 455.1 217.1 455.1 216L458.5 201 473 191.8 465.7 225.8C465.5 227.3 466.5 228.4 467.8 229.1 468.9 229.1 470.4 228.2 470.6 226.7ZM510 187.1L493.3 178.5 490.8 177.2 490.6 174.4 489.7 156.1 489.8 152.9 492.2 151.4 507.5 141.5 509.9 140.1 512.5 141.4 529.1 150 531.7 151.3 531.8 154.1 532.7 172.3 532.9 175.1 530.3 177 514.9 186.9 512.5 188.4 510 187.1Z" fill="rgba(255, 255, 255, 0.5)"></path><path d="M698.8 497.5L666.4 520.6 631.4 514.5 654.1 487.2 693.8 483.9C693.8 483.9 694.3 483.8 694.3 483.8 695.2 483.4 695.8 482.2 695.9 481.2 695.8 479.6 694.4 478.6 693.1 479.1L658.4 482.1 669.4 468.9 684.7 467.4C684.7 467.4 685.2 467.2 685.2 467.2 686.1 466.9 686.6 465.6 686.7 464.6 686.7 463 685.3 462 684 462.5L673.5 463.3 681.7 453.6C682.5 452.8 682.2 450.9 681.5 450.1 680.5 448.9 678.7 449.6 678 450.4L669.8 460 669 449.6C669 448.1 667.6 447 666.2 447.5 664.7 447.6 663.7 449 664.2 450.3L665.7 465.6 654.5 478.4 651.5 443.7C651.5 442.2 650.1 441.2 648.7 441.7 647.2 441.7 646.2 443.1 646.7 444.5L650 484.2 627.2 511.4 614.8 477.6 631.7 441.3C632.3 440 631.8 438.7 630.6 438.1 629.3 437.5 628 438 627.4 439.3L612.5 471.3 606.6 455 612.9 441.5C613.5 440.3 613 438.9 611.7 438.3 610.5 437.8 609.1 438.3 608.6 439.5L604.3 448.7 599.7 436.1C599.6 434.6 597.9 434.2 596.6 434.7 595.2 435.2 594.7 436.4 595.2 437.8L599.4 449.5 590.2 445.2C589 444.6 587.6 445.1 587.1 446.4S587 448.9 588.2 449.5L601.8 455.8 607.7 472 575.7 457.2C574.4 456.6 573.1 457.1 572.5 458.3 572 459.5 572.4 460.9 573.7 461.5L610 478.3 622.2 511.7 587.3 505.6 564.9 473.9C564 472.7 562.5 472.7 561.1 473.2 559.9 474.2 560 475.7 560.5 477L580.6 505.5 563.6 502.5 554.9 489.8C554 488.6 552.4 488.7 551.1 489.2 549.9 490.1 550 491.6 550.3 492.5L556.5 501 543.9 498.9C542.9 498.8 541.1 499.5 541.1 501 541.2 502.5 541.7 503.9 543.2 503.8L555.7 505.9 547.2 512C546 513 546.1 514.5 546.4 515.4 547.2 516.1 548.4 516.7 549.3 516.4 549.3 516.4 549.8 516.2 549.8 516.2L562.4 507.5 579.4 510.5 550.9 530.6C549.7 531.6 549.8 533.1 550.1 534 550.9 534.7 552.1 535.3 553 535 553 535 553.5 534.8 553.5 534.8L585.9 511.7 620.9 517.8 598.1 545 558.4 548.3C556.9 548.4 555.9 549.8 556.4 551.1 556.4 552.6 557.8 553.7 559.2 553.2L593.9 550.2 582.9 563.4 567.6 564.9C566.1 565 565 566.3 565.5 567.7 565.6 569.2 567 570.2 568.3 569.7L578.8 569 570.6 578.6C569.8 579.4 570 581.4 570.8 582.1 571.6 582.9 572.7 583 573.6 582.7 574 582.5 574.5 582.3 574.7 581.7L583 572.1 583.7 582.5C583.8 584 585.2 585 586.5 584.6 586.5 584.6 587 584.4 587 584.4 587.9 584.1 588.4 582.8 588.6 581.8L587.1 566.5 598.1 553.2 601 587.9C601.1 589.4 602.5 590.5 603.8 590 603.8 590 604.3 589.8 604.3 589.8 605.2 589.5 605.8 588.2 605.9 587.2L602.6 547.5 625.3 520.3 637.6 553.6 620.7 589.9C620.1 591.2 620.6 592.5 621.8 593.1 623.1 593.7 624.4 593.2 625 591.9L640 560.4 646 576.6 639.7 590.1C639.1 591.4 639.6 592.7 640.8 593.3S643.4 593.4 644 592.1L648.3 582.9 652.6 594.6C653.1 596 654.3 596.6 655.6 596.1 657 595.6 657.6 594.3 657.1 593L652.8 581.3 662 585.5C662.6 585.8 663.3 586.1 664.2 585.8S665.3 584.8 665.6 584.2C666.2 583 665.7 581.6 664.5 581.1L650.9 574.8 645 558.6 677 573.4C677.6 573.7 678.2 574 679.1 573.7 679.6 573.5 680.3 572.7 680.6 572.1 681.2 570.9 680.7 569.5 679.5 568.9L643.1 552.1 630.9 518.7 665.9 524.8 689 557.3C689.8 558 691 558.6 691.9 558.3 691.9 558.3 692.4 558.1 692.4 558.1 693.5 557.1 693.5 555.6 693.2 554.7L673.1 526.3 690 529.3 698.7 542C699.5 542.7 700.7 543.3 701.6 542.9 701.6 542.9 702.1 542.8 702.1 542.8 703.3 541.8 703.2 540.3 702.9 539.4L696.7 530.9 709.2 533C709.7 532.8 710.3 533.1 710.8 533 711.7 532.6 712.4 531.8 712.5 530.8 712.5 529.3 712 527.9 710.5 528L697.9 525.9 706.4 519.7C707.6 518.8 707.6 517.3 707.2 516.4 706.3 515.2 704.8 515.2 703.9 515.5L691.2 524.3 674.3 521.3 702.7 501.2C703.9 500.2 703.8 498.7 703.5 497.8 701.7 496.9 700 496.5 698.8 497.5Z" fill="rgba(255, 255, 255, 0.5)"></path><path d="M1043.3 121.7L1034.6 114.7 1040.8 112C1041.5 111.8 1041.9 110.8 1041.7 109.9 1041.2 109.1 1040.3 108.7 1039.6 109.2L1031.7 112.3 1024.7 107.2 1041.1 100.7C1041.8 100.2 1042.2 99.3 1042 98.6 1041.5 97.5 1040.6 97.1 1039.9 97.6L1021.7 104.8 1011.3 96.6 1026 92.5 1012.9 84.6 1025.2 79.5 1040.7 91.3C1040.7 91.6 1041 91.7 1041.3 91.7 1042 91.8 1042.6 91.6 1043 91 1043.4 90.4 1043.3 89.4 1042.7 88.7L1028.7 78 1036.8 74.9 1043.6 80.1C1043.8 80.4 1044.2 80.5 1044.5 80.5 1044.8 80.6 1045.5 80.3 1045.9 79.7 1046.3 79.1 1046.1 78.2 1045.5 77.7L1040.3 73.5 1050.6 69.1C1051.6 68.9 1051.7 67.9 1051.5 66.9 1051.3 66.3 1050.4 65.8 1049.3 66.3L1039.1 70.4 1040 63.7C1040.1 62.8 1039.3 62 1038.6 61.9 1037.7 61.8 1037 62.4 1036.8 63.3L1035.7 71.9 1027.5 74.9 1029.8 57.8C1030 56.9 1029.4 56.2 1028.5 56 1027.8 55.9 1026.8 56.4 1026.7 57.4L1024 76.4 1011.7 81.5 1015.4 66.8 1002.1 74 1003.9 60.7 1021.7 53.5C1022.8 53 1022.9 52 1022.7 51.3 1022.4 50.7 1021.5 50.2 1020.5 50.4L1004.4 57.2 1005.6 48.7 1013.5 45.2C1014.5 45.1 1014.9 44.1 1014.4 43.1 1014.2 42.4 1013.3 42 1012.2 42.5L1006.1 44.9 1007.6 33.8C1007.8 32.8 1007.2 32.1 1006.3 32S1004.6 32.4 1004.5 33.3L1002.9 44.4 997.7 40.5C996.8 39.7 995.8 39.9 995.4 40.5 994.6 41.4 994.8 42.3 995.7 42.8L1002.4 48.2 1001.2 56.8 987.6 45.9C986.6 45.4 985.7 45.6 985.2 46.2 984.5 47.1 984.7 48.1 985.6 48.5L1000.7 60.3 998.9 73.6 988.1 63.1 987.6 78.2 977.1 69.9 979.7 50.9C979.9 50 979 49.2 978.4 49.1 977.4 49 976.7 49.5 976.6 50.5L974.2 67.9 967.2 62.4 968.4 53.9C968.5 52.9 967.9 52.2 967 52.1 966.4 52 965.3 52.5 965.2 53.4L964.3 60.1 955.5 53.4C954.6 52.6 953.6 52.8 953.2 53.7 952.8 54.3 952.7 55.3 953.6 55.7L962.3 62.7 956.1 65.4C955.4 65.7 955 66.6 955.2 67.3 955.4 67.9 956 68.3 956.3 68.4 956.7 68.4 957 68.5 957.3 68.2L965.2 65.1 972.2 70.2 955.8 76.7C955.1 77.3 954.7 78.2 954.9 78.8 955.1 79.5 955.7 79.9 956.4 80 956.7 80.1 956.7 80.1 957 79.8L975.2 72.6 985.6 80.8 970.9 84.9 984 92.9 971.7 97.9 956.2 86.1C955.6 85.7 954.6 85.6 953.9 86.5 953.5 87 953.6 88 954.2 88.8L968.2 99.4 960.1 102.5 953.3 97.4C952.8 96.6 951.8 96.8 951 97.7 950.6 98.3 950.8 99.3 951.4 100L956.6 104 946.3 108.3C945.3 108.5 945.2 109.5 945.4 110.5 945.7 110.8 946.2 111.2 946.6 111.3 946.9 111.3 947.2 111.4 947.6 111.1L957.8 107 956.9 113.7C956.8 114.6 957.6 115.4 958.3 115.5L958.3 115.5C959.2 115.6 959.9 115.1 960.1 114.1L961.2 105.6 969.4 102.5 967.1 119.6C966.9 120.6 967.5 121.3 968.4 121.4S970.1 121 970.2 120L972.9 101 985.2 95.9 981.5 110.6 994.8 103.4 993 116.7 975.2 123.9C974.1 124.5 974 125.4 974.2 126.1 974.5 126.8 975.4 127.2 976.4 127L992.5 120.5 991.3 128.8 983.4 132.2C982.4 132.4 982 133.3 982.5 134.3 982.7 135 983.6 135.4 984.6 135.3L990.8 132.6 989.3 143.7C989.1 144.6 989.7 145.3 990.6 145.5S992.3 145 992.4 144.1L994 133 999.2 137C999.5 137.3 999.8 137.4 1000.1 137.4 1000.8 137.5 1001.1 137.2 1001.5 136.9 1002.3 136.1 1002.1 135.1 1001.2 134.6L994.5 129.2 995.7 120.6 1009.3 131.6C1009.7 131.6 1010 131.6 1010.3 131.7 1010.9 131.8 1011.3 131.5 1011.7 131.2 1012.4 130.4 1012.2 129.4 1011.3 128.9L996.1 117.1 998 103.8 1008.8 114.4 1009.3 99.2 1019.8 107.5 1017.2 126.5C1017 127.4 1017.9 128.2 1018.5 128.3 1019.5 128.4 1020.2 127.9 1020.3 126.9L1022.7 109.8 1029.7 115 1028.5 123.5C1028.4 124.5 1029 125.2 1029.9 125.3S1031.6 124.9 1031.7 124L1032.6 117.3 1041.4 124C1041.7 124.4 1042 124.4 1042.3 124.5 1042.6 124.5 1043.3 124.3 1043.7 123.7 1044.1 123.1 1044.2 122.2 1043.3 121.7ZM1005.9 107.2L997.1 98.5 986.3 104.5 989.2 92.3 978.8 86 990.6 82.5 991 70.2 999.8 78.9 1010.6 72.9 1007.7 84.8 1018.1 91.4 1006.4 94.6 1005.9 107.2Z" fill="rgba(255, 255, 255, 0.5)"></path></g><defs><mask id="SvgjsMask1016"><rect width="1440" height="560" fill="#ffffff"></rect></mask><filter id="SvgjsFilter1017"><feGaussianBlur stdDeviation="1"></feGaussianBlur></filter></defs></svg>