<svg xmlns="http://www.w3.org/2000/svg" version="1.1" xmlns:xlink="http://www.w3.org/1999/xlink" xmlns:svgjs="http://svgjs.dev/svgjs" width="1440" height="250" preserveAspectRatio="none" viewBox="0 0 1440 250"><g mask="url(&quot;#SvgjsMask1006&quot;)" fill="none"><path d="M7 250L257 0L506 0L256 250z" fill="url(&quot;#SvgjsLinearGradient1007&quot;)"></path><path d="M245.60000000000002 250L495.6 0L752.1 0L502.1 250z" fill="url(&quot;#SvgjsLinearGradient1007&quot;)"></path><path d="M499.20000000000005 250L749.2 0L1041.7 0L791.7 250z" fill="url(&quot;#SvgjsLinearGradient1007&quot;)"></path><path d="M722.8000000000001 250L972.8000000000001 0L1235.3000000000002 0L985.3000000000001 250z" fill="url(&quot;#SvgjsLinearGradient1007&quot;)"></path><path d="M1429 250L1179 0L1014 0L1264 250z" fill="url(&quot;#SvgjsLinearGradient1008&quot;)"></path><path d="M1201.4 250L951.4000000000001 0L687.4000000000001 0L937.4000000000001 250z" fill="url(&quot;#SvgjsLinearGradient1008&quot;)"></path><path d="M936.8 250L686.8 0L518.8 0L768.8 250z" fill="url(&quot;#SvgjsLinearGradient1008&quot;)"></path><path d="M702.1999999999999 250L452.19999999999993 0L176.19999999999993 0L426.19999999999993 250z" fill="url(&quot;#SvgjsLinearGradient1008&quot;)"></path><path d="M1191.2685989180002 250L1440 1.2685989180000945L1440 250z" fill="url(&quot;#SvgjsLinearGradient1007&quot;)"></path><path d="M0 250L248.7314010819999 250L 0 1.2685989180000945z" fill="url(&quot;#SvgjsLinearGradient1008&quot;)"></path></g><defs><mask id="SvgjsMask1006"><rect width="1440" height="250" fill="#ffffff"></rect></mask><linearGradient x1="0%" y1="100%" x2="100%" y2="0%" id="SvgjsLinearGradient1007"><stop stop-color="rgba(255, 255, 255, 0.5)" offset="0"></stop><stop stop-opacity="0" stop-color="rgba(255, 255, 255, 0.5)" offset="0.66"></stop></linearGradient><linearGradient x1="100%" y1="100%" x2="0%" y2="0%" id="SvgjsLinearGradient1008"><stop stop-color="rgba(255, 255, 255, 0.5)" offset="0"></stop><stop stop-opacity="0" stop-color="rgba(255, 255, 255, 0.5)" offset="0.66"></stop></linearGradient></defs></svg>